<mxfile host="app.diagrams.net" modified="2023-08-15T09:57:48.931Z" agent="Mozilla/5.0 (Windows NT 10.0; Win64; x64) AppleWebKit/537.36 (KHTML, like Gecko) Chrome/115.0.0.0 Safari/537.36" etag="8j8Z9tPVHSHDvIyrgyZ1" version="21.6.8" type="device">
  <diagram name="Page-1" id="nFAg67IEPFZFisM7S5NW">
    <mxGraphModel dx="1434" dy="782" grid="1" gridSize="10" guides="1" tooltips="1" connect="1" arrows="1" fold="1" page="1" pageScale="1" pageWidth="850" pageHeight="1100" math="0" shadow="0">
      <root>
        <mxCell id="0" />
        <mxCell id="1" parent="0" />
        <mxCell id="C25TyvA7FYonB_q8Y5t8-42" value="&lt;br&gt;AQUEON" style="shape=module;align=left;spacingLeft=20;align=center;verticalAlign=top;whiteSpace=wrap;html=1;" parent="1" vertex="1">
          <mxGeometry x="110" y="370" width="100" height="50" as="geometry" />
        </mxCell>
        <mxCell id="C25TyvA7FYonB_q8Y5t8-43" value="" style="ellipse;whiteSpace=wrap;html=1;aspect=fixed;" parent="1" vertex="1">
          <mxGeometry x="320" y="380" width="30" height="30" as="geometry" />
        </mxCell>
        <mxCell id="C25TyvA7FYonB_q8Y5t8-44" value="" style="endArrow=none;html=1;rounded=0;exitX=1;exitY=0.5;exitDx=0;exitDy=0;entryX=0;entryY=0.5;entryDx=0;entryDy=0;" parent="1" source="C25TyvA7FYonB_q8Y5t8-42" target="C25TyvA7FYonB_q8Y5t8-43" edge="1">
          <mxGeometry width="50" height="50" relative="1" as="geometry">
            <mxPoint x="345" y="440" as="sourcePoint" />
            <mxPoint x="390" y="395" as="targetPoint" />
          </mxGeometry>
        </mxCell>
        <mxCell id="C25TyvA7FYonB_q8Y5t8-45" value="" style="endArrow=classic;html=1;rounded=0;" parent="1" edge="1">
          <mxGeometry width="50" height="50" relative="1" as="geometry">
            <mxPoint x="340" y="380" as="sourcePoint" />
            <mxPoint x="470" y="360" as="targetPoint" />
            <Array as="points">
              <mxPoint x="340" y="360" />
            </Array>
          </mxGeometry>
        </mxCell>
        <mxCell id="C25TyvA7FYonB_q8Y5t8-46" value="" style="endArrow=classic;html=1;rounded=0;exitX=0.5;exitY=1;exitDx=0;exitDy=0;" parent="1" source="C25TyvA7FYonB_q8Y5t8-43" edge="1">
          <mxGeometry width="50" height="50" relative="1" as="geometry">
            <mxPoint x="420" y="390" as="sourcePoint" />
            <mxPoint x="470" y="480" as="targetPoint" />
            <Array as="points">
              <mxPoint x="340" y="450" />
              <mxPoint x="340" y="480" />
            </Array>
          </mxGeometry>
        </mxCell>
        <mxCell id="C25TyvA7FYonB_q8Y5t8-47" style="edgeStyle=orthogonalEdgeStyle;rounded=0;orthogonalLoop=1;jettySize=auto;html=1;entryX=0;entryY=0.5;entryDx=0;entryDy=0;entryPerimeter=0;" parent="1" source="C25TyvA7FYonB_q8Y5t8-51" target="C25TyvA7FYonB_q8Y5t8-57" edge="1">
          <mxGeometry relative="1" as="geometry">
            <mxPoint x="720" y="355" as="targetPoint" />
            <Array as="points">
              <mxPoint x="650" y="355" />
              <mxPoint x="650" y="265" />
            </Array>
          </mxGeometry>
        </mxCell>
        <mxCell id="C25TyvA7FYonB_q8Y5t8-48" style="edgeStyle=orthogonalEdgeStyle;rounded=0;orthogonalLoop=1;jettySize=auto;html=1;entryX=0;entryY=0.5;entryDx=0;entryDy=0;entryPerimeter=0;" parent="1" source="C25TyvA7FYonB_q8Y5t8-51" target="C25TyvA7FYonB_q8Y5t8-56" edge="1">
          <mxGeometry relative="1" as="geometry">
            <mxPoint x="720" y="300" as="targetPoint" />
            <Array as="points">
              <mxPoint x="651" y="355" />
              <mxPoint x="651" y="195" />
            </Array>
          </mxGeometry>
        </mxCell>
        <mxCell id="C25TyvA7FYonB_q8Y5t8-49" style="rounded=0;orthogonalLoop=1;jettySize=auto;html=1;entryX=-0.024;entryY=0.848;entryDx=0;entryDy=0;entryPerimeter=0;" parent="1" source="C25TyvA7FYonB_q8Y5t8-51" target="C25TyvA7FYonB_q8Y5t8-58" edge="1">
          <mxGeometry relative="1" as="geometry">
            <mxPoint x="720" y="440" as="targetPoint" />
          </mxGeometry>
        </mxCell>
        <mxCell id="C25TyvA7FYonB_q8Y5t8-50" style="edgeStyle=orthogonalEdgeStyle;rounded=0;orthogonalLoop=1;jettySize=auto;html=1;entryX=0;entryY=0.5;entryDx=0;entryDy=0;entryPerimeter=0;" parent="1" source="C25TyvA7FYonB_q8Y5t8-51" target="C25TyvA7FYonB_q8Y5t8-59" edge="1">
          <mxGeometry relative="1" as="geometry">
            <mxPoint x="720" y="420" as="targetPoint" />
            <Array as="points">
              <mxPoint x="651" y="355" />
              <mxPoint x="651" y="415" />
            </Array>
          </mxGeometry>
        </mxCell>
        <mxCell id="C25TyvA7FYonB_q8Y5t8-51" value="user&lt;br&gt;" style="shape=module;align=left;spacingLeft=20;align=center;verticalAlign=top;whiteSpace=wrap;html=1;" parent="1" vertex="1">
          <mxGeometry x="470" y="330" width="90" height="50" as="geometry" />
        </mxCell>
        <mxCell id="C25TyvA7FYonB_q8Y5t8-52" style="edgeStyle=orthogonalEdgeStyle;rounded=0;orthogonalLoop=1;jettySize=auto;html=1;" parent="1" source="C25TyvA7FYonB_q8Y5t8-55" edge="1">
          <mxGeometry relative="1" as="geometry">
            <mxPoint x="730" y="470" as="targetPoint" />
            <Array as="points">
              <mxPoint x="650" y="485" />
              <mxPoint x="650" y="471" />
            </Array>
          </mxGeometry>
        </mxCell>
        <mxCell id="C25TyvA7FYonB_q8Y5t8-53" style="edgeStyle=orthogonalEdgeStyle;rounded=0;orthogonalLoop=1;jettySize=auto;html=1;" parent="1" source="C25TyvA7FYonB_q8Y5t8-55" edge="1">
          <mxGeometry relative="1" as="geometry">
            <mxPoint x="730" y="520" as="targetPoint" />
            <Array as="points">
              <mxPoint x="671" y="485" />
            </Array>
          </mxGeometry>
        </mxCell>
        <mxCell id="C25TyvA7FYonB_q8Y5t8-54" style="edgeStyle=orthogonalEdgeStyle;rounded=0;orthogonalLoop=1;jettySize=auto;html=1;entryX=0;entryY=0.5;entryDx=0;entryDy=0;entryPerimeter=0;" parent="1" target="C25TyvA7FYonB_q8Y5t8-62" edge="1">
          <mxGeometry relative="1" as="geometry">
            <mxPoint x="670" y="620" as="targetPoint" />
            <Array as="points">
              <mxPoint x="610" y="485" />
              <mxPoint x="650" y="485" />
              <mxPoint x="650" y="595" />
            </Array>
            <mxPoint x="610" y="480" as="sourcePoint" />
          </mxGeometry>
        </mxCell>
        <mxCell id="C25TyvA7FYonB_q8Y5t8-55" value="Admin" style="shape=module;align=left;spacingLeft=20;align=center;verticalAlign=top;whiteSpace=wrap;html=1;" parent="1" vertex="1">
          <mxGeometry x="470" y="460" width="90" height="50" as="geometry" />
        </mxCell>
        <mxCell id="C25TyvA7FYonB_q8Y5t8-56" value="user_Profile.py" style="whiteSpace=wrap;html=1;shape=mxgraph.basic.document" parent="1" vertex="1">
          <mxGeometry x="730" y="170" width="100" height="50" as="geometry" />
        </mxCell>
        <mxCell id="C25TyvA7FYonB_q8Y5t8-57" value="order.py" style="whiteSpace=wrap;html=1;shape=mxgraph.basic.document" parent="1" vertex="1">
          <mxGeometry x="730" y="240" width="100" height="50" as="geometry" />
        </mxCell>
        <mxCell id="C25TyvA7FYonB_q8Y5t8-58" value="login.py" style="whiteSpace=wrap;html=1;shape=mxgraph.basic.document" parent="1" vertex="1">
          <mxGeometry x="730" y="310" width="100" height="50" as="geometry" />
        </mxCell>
        <mxCell id="C25TyvA7FYonB_q8Y5t8-59" value="cart.py" style="whiteSpace=wrap;html=1;shape=mxgraph.basic.document" parent="1" vertex="1">
          <mxGeometry x="730" y="390" width="100" height="50" as="geometry" />
        </mxCell>
        <mxCell id="C25TyvA7FYonB_q8Y5t8-60" value="approve_seller.py" style="whiteSpace=wrap;html=1;shape=mxgraph.basic.document" parent="1" vertex="1">
          <mxGeometry x="730" y="450" width="100" height="50" as="geometry" />
        </mxCell>
        <mxCell id="C25TyvA7FYonB_q8Y5t8-61" value="manage_user.py" style="whiteSpace=wrap;html=1;shape=mxgraph.basic.document" parent="1" vertex="1">
          <mxGeometry x="730" y="510" width="100" height="50" as="geometry" />
        </mxCell>
        <mxCell id="C25TyvA7FYonB_q8Y5t8-62" value="approve_prod_request.py" style="whiteSpace=wrap;html=1;shape=mxgraph.basic.document" parent="1" vertex="1">
          <mxGeometry x="710" y="570" width="140" height="50" as="geometry" />
        </mxCell>
        <mxCell id="C25TyvA7FYonB_q8Y5t8-63" value="" style="endArrow=classic;html=1;rounded=0;" parent="1" edge="1">
          <mxGeometry width="50" height="50" relative="1" as="geometry">
            <mxPoint x="340" y="480" as="sourcePoint" />
            <mxPoint x="470" y="680" as="targetPoint" />
            <Array as="points">
              <mxPoint x="340" y="680" />
            </Array>
          </mxGeometry>
        </mxCell>
        <mxCell id="C25TyvA7FYonB_q8Y5t8-64" value="seller" style="shape=module;align=left;spacingLeft=20;align=center;verticalAlign=top;whiteSpace=wrap;html=1;" parent="1" vertex="1">
          <mxGeometry x="470" y="660" width="90" height="50" as="geometry" />
        </mxCell>
        <mxCell id="C25TyvA7FYonB_q8Y5t8-65" style="rounded=0;orthogonalLoop=1;jettySize=auto;html=1;exitX=1;exitY=0.5;exitDx=0;exitDy=0;" parent="1" edge="1" source="C25TyvA7FYonB_q8Y5t8-64">
          <mxGeometry relative="1" as="geometry">
            <mxPoint x="720" y="685" as="targetPoint" />
            <mxPoint x="610" y="670" as="sourcePoint" />
          </mxGeometry>
        </mxCell>
        <mxCell id="C25TyvA7FYonB_q8Y5t8-66" value="seller_profile.py" style="whiteSpace=wrap;html=1;shape=mxgraph.basic.document" parent="1" vertex="1">
          <mxGeometry x="730" y="660" width="120" height="50" as="geometry" />
        </mxCell>
        <mxCell id="PKwaaFPT83l0cKrCpdpX-4" value="" style="edgeStyle=none;orthogonalLoop=1;jettySize=auto;html=1;rounded=0;" edge="1" parent="1">
          <mxGeometry width="80" relative="1" as="geometry">
            <mxPoint x="650" y="680" as="sourcePoint" />
            <mxPoint x="720" y="740" as="targetPoint" />
            <Array as="points">
              <mxPoint x="650" y="740" />
            </Array>
          </mxGeometry>
        </mxCell>
        <mxCell id="PKwaaFPT83l0cKrCpdpX-5" value="add_product.py" style="whiteSpace=wrap;html=1;shape=mxgraph.basic.document" vertex="1" parent="1">
          <mxGeometry x="730" y="720" width="120" height="50" as="geometry" />
        </mxCell>
        <mxCell id="PKwaaFPT83l0cKrCpdpX-6" value="modify_product.py" style="whiteSpace=wrap;html=1;shape=mxgraph.basic.document" vertex="1" parent="1">
          <mxGeometry x="730" y="780" width="120" height="50" as="geometry" />
        </mxCell>
        <mxCell id="PKwaaFPT83l0cKrCpdpX-7" value="" style="edgeStyle=none;orthogonalLoop=1;jettySize=auto;html=1;rounded=0;entryX=-0.05;entryY=0.42;entryDx=0;entryDy=0;entryPerimeter=0;" edge="1" parent="1" target="PKwaaFPT83l0cKrCpdpX-6">
          <mxGeometry width="80" relative="1" as="geometry">
            <mxPoint x="650" y="740" as="sourcePoint" />
            <mxPoint x="730" y="860" as="targetPoint" />
            <Array as="points">
              <mxPoint x="650" y="800" />
            </Array>
          </mxGeometry>
        </mxCell>
      </root>
    </mxGraphModel>
  </diagram>
</mxfile>
